<svg xmlns="http://www.w3.org/2000/svg" xmlns:xlink="http://www.w3.org/1999/xlink" width="936" zoomAndPan="magnify" viewBox="0 0 702 111.749996" height="149" preserveAspectRatio="xMidYMid meet" version="1.0"><defs><g/></defs><g fill="#ffffff" fill-opacity="1"><g transform="translate(6.869489, 83.569414)"><g><path d="M 0.855469 0 L 12.1875 0 L 18.472656 -13.996094 L 54.5625 -13.996094 L 60.945312 0 L 72.273438 0 L 42.375 -66.65625 L 30.757812 -66.65625 Z M 22.472656 -23.710938 L 36.566406 -55.421875 L 50.660156 -23.710938 Z M 22.472656 -23.710938 "/></g></g></g><g fill="#ffffff" fill-opacity="1"><g transform="translate(80.001851, 83.569414)"><g><path d="M 7.046875 0 L 16.855469 0 L 16.855469 -66.65625 L 7.046875 -66.65625 Z M 7.046875 0 "/></g></g></g><g fill="#ffffff" fill-opacity="1"><g transform="translate(103.903186, 83.569414)"><g><path d="M 11.617188 -54.660156 C 14.664062 -54.660156 17.710938 -56.660156 17.710938 -60.753906 C 17.710938 -64.847656 14.664062 -66.753906 11.617188 -66.753906 C 8.570312 -66.753906 5.523438 -64.847656 5.523438 -60.753906 C 5.523438 -56.660156 8.570312 -54.660156 11.617188 -54.660156 Z M 6.664062 0 L 16.472656 0 L 16.472656 -47.039062 L 6.664062 -47.039062 Z M 6.664062 0 "/></g></g></g><g fill="#ffffff" fill-opacity="1"><g transform="translate(127.042721, 83.569414)"><g/></g></g><g fill="#ffffff" fill-opacity="1"><g transform="translate(150.75852, 83.569414)"><g><path d="M 8.855469 0 L 17.140625 0 L 17.140625 -31.328125 L 49.613281 0 L 59.800781 0 L 59.800781 -0.570312 L 24.949219 -34.566406 L 57.039062 -66.179688 L 57.039062 -66.65625 L 46.46875 -66.65625 L 17.140625 -37.234375 L 17.140625 -66.65625 L 8.855469 -66.65625 Z M 8.855469 0 "/></g></g></g><g fill="#ffffff" fill-opacity="1"><g transform="translate(210.559466, 83.569414)"><g><path d="M 8 0 L 15.808594 0 L 15.808594 -24.949219 C 15.808594 -33.519531 21.140625 -40.660156 29.902344 -40.660156 C 38.46875 -40.660156 42.566406 -35.421875 42.566406 -26.28125 L 42.566406 0 L 50.375 0 L 50.375 -26.28125 C 50.375 -39.234375 44.375 -48.089844 31.136719 -48.089844 C 25.042969 -47.992188 19.808594 -45.421875 15.617188 -39.234375 L 15.617188 -66.65625 L 8 -66.65625 Z M 8 0 "/></g></g></g><g fill="#ffffff" fill-opacity="1"><g transform="translate(267.884575, 83.569414)"><g><path d="M 28.28125 1.144531 C 34.757812 1.144531 41.898438 -1.90625 45.613281 -8.285156 L 45.804688 0 L 53.515625 0 L 53.515625 -47.039062 L 45.898438 -47.039062 L 45.804688 -38.46875 C 42.183594 -45.136719 35.804688 -48.089844 28.375 -48.089844 C 15.046875 -48.089844 4.191406 -39.421875 4.191406 -23.519531 C 4.191406 -8.1875 14.761719 1.144531 28.28125 1.144531 Z M 28.664062 -6 C 19.332031 -6 11.710938 -12.855469 11.710938 -23.234375 C 11.710938 -34.28125 19.332031 -40.660156 28.664062 -40.660156 C 40.089844 -40.660156 45.804688 -32.089844 45.804688 -23.425781 C 45.804688 -14.664062 40.089844 -6 28.664062 -6 Z M 28.664062 -6 "/></g></g></g><g fill="#ffffff" fill-opacity="1"><g transform="translate(328.63776, 83.569414)"><g><path d="M 28.089844 1.144531 C 35.042969 1.144531 41.898438 -2.191406 45.707031 -8.664062 L 46.089844 0 L 53.515625 0 L 53.515625 -66.753906 L 53.421875 -66.65625 L 45.613281 -66.65625 L 45.613281 -38.46875 C 42.28125 -44.851562 34.660156 -48.089844 28.089844 -48.089844 C 14.664062 -48.089844 4.285156 -39.328125 4.285156 -23.519531 C 4.285156 -7.425781 14.664062 1.144531 28.089844 1.144531 Z M 28.664062 -6.285156 C 19.519531 -6.285156 12 -12.09375 12 -23.617188 C 12 -34.660156 19.519531 -40.757812 28.566406 -40.757812 C 37.996094 -40.757812 45.328125 -33.804688 45.328125 -23.710938 C 45.328125 -13.425781 38.089844 -6.285156 28.664062 -6.285156 Z M 28.664062 -6.285156 "/></g></g></g><g fill="#ffffff" fill-opacity="1"><g transform="translate(389.295738, 83.569414)"><g><path d="M 28.949219 1.144531 C 36.28125 1.144531 44.375 -1.523438 49.328125 -7.238281 L 49.421875 -7.238281 L 44.089844 -11.902344 C 41.042969 -8.09375 34.375 -6.09375 29.140625 -6.09375 C 20.1875 -6.09375 12.855469 -11.710938 12 -20.855469 L 52.085938 -20.855469 C 52.183594 -22.1875 52.277344 -23.519531 52.277344 -24.757812 C 52.277344 -40.757812 41.898438 -48.089844 28.566406 -48.089844 C 14.378906 -48.089844 4.191406 -37.898438 4.191406 -23.710938 C 4.191406 -8.378906 14.378906 1.144531 28.949219 1.144531 Z M 12 -27.328125 C 13.523438 -36.472656 20.570312 -41.042969 28.757812 -41.042969 C 37.996094 -41.042969 44.28125 -36.375 44.566406 -27.328125 Z M 12 -27.328125 "/></g></g></g><g fill="#ffffff" fill-opacity="1"><g transform="translate(445.097258, 83.569414)"><g><path d="M 7.140625 0 L 14.949219 0 L 14.949219 -26.664062 C 14.949219 -34.28125 19.996094 -40.757812 27.804688 -40.757812 C 35.519531 -40.757812 40.375 -34.566406 40.375 -26.949219 L 40.375 0 L 48.183594 0 L 48.183594 -26.949219 C 48.183594 -34.566406 53.421875 -40.757812 61.039062 -40.757812 C 68.753906 -40.757812 73.226562 -34.851562 73.226562 -27.140625 L 73.226562 0 L 81.132812 0 L 81.132812 -27.140625 C 81.132812 -40.089844 73.703125 -48.089844 61.230469 -48.089844 C 54.5625 -48.089844 48.089844 -45.042969 44.566406 -37.804688 C 41.898438 -45.328125 35.328125 -48.089844 28.851562 -48.089844 C 23.519531 -48.089844 17.902344 -45.707031 14.949219 -40.089844 L 14.472656 -47.039062 L 7.140625 -47.039062 Z M 7.140625 0 "/></g></g></g><g fill="#ffffff" fill-opacity="1"><g transform="translate(532.798954, 83.569414)"><g><path d="M 11.140625 -56.371094 C 13.617188 -56.371094 16.378906 -57.894531 16.378906 -61.324219 C 16.378906 -64.753906 13.617188 -66.464844 11.140625 -66.464844 C 8.476562 -66.464844 6 -64.753906 6 -61.417969 C 6 -57.992188 8.476562 -56.371094 11.140625 -56.371094 Z M 7.140625 0 L 14.949219 0 L 14.949219 -47.039062 L 7.140625 -47.039062 Z M 7.140625 0 "/></g></g></g><g fill="#ffffff" fill-opacity="1"><g transform="translate(554.98624, 83.569414)"><g><path d="M 28.28125 1.144531 C 34.757812 1.144531 41.898438 -1.90625 45.613281 -8.285156 L 45.804688 0 L 53.515625 0 L 53.515625 -47.039062 L 45.898438 -47.039062 L 45.804688 -38.46875 C 42.183594 -45.136719 35.804688 -48.089844 28.375 -48.089844 C 15.046875 -48.089844 4.191406 -39.421875 4.191406 -23.519531 C 4.191406 -8.1875 14.761719 1.144531 28.28125 1.144531 Z M 28.664062 -6 C 19.332031 -6 11.710938 -12.855469 11.710938 -23.234375 C 11.710938 -34.28125 19.332031 -40.660156 28.664062 -40.660156 C 40.089844 -40.660156 45.804688 -32.089844 45.804688 -23.425781 C 45.804688 -14.664062 40.089844 -6 28.664062 -6 Z M 28.664062 -6 "/></g></g></g><g fill="#ffffff" fill-opacity="1"><g transform="translate(615.739436, 83.569414)"><g><path d="M 8.09375 0 L 15.808594 0 L 15.808594 -25.234375 C 15.808594 -33.613281 21.425781 -40.757812 29.996094 -40.757812 C 39.042969 -40.757812 43.613281 -35.421875 43.613281 -25.996094 L 43.613281 0 L 51.515625 0 L 51.515625 -26.089844 C 51.515625 -40.28125 43.230469 -48.089844 31.519531 -48.089844 C 25.140625 -48.089844 19.808594 -45.707031 15.617188 -39.613281 L 15.234375 -47.039062 L 8.09375 -47.039062 Z M 8.09375 0 "/></g></g></g><g fill="#ff3131" fill-opacity="1"><g transform="translate(673.639499, 83.569414)"><g><path d="M 11.617188 0.855469 C 14.570312 0.855469 17.617188 -1.238281 17.617188 -5.238281 C 17.617188 -9.238281 14.570312 -11.238281 11.617188 -11.238281 C 8.570312 -11.238281 5.523438 -9.238281 5.523438 -5.238281 C 5.523438 -1.238281 8.570312 0.855469 11.617188 0.855469 Z M 11.617188 0.855469 "/></g></g></g></svg>